<svg width="1200" height="630" viewBox="0 0 1200 630" fill="none" xmlns="http://www.w3.org/2000/svg">
<g clip-path="url(#clip0_307_1885)">
<rect width="1493.33" height="630" transform="translate(-147)" fill="#121214"/>
<g opacity="0.1">
<path fill-rule="evenodd" clip-rule="evenodd" d="M1163.02 26.5289C1163.02 26.5289 1194.09 54.357 1212.55 65.1768C1231.02 75.9966 1241.14 71.3602 1241.14 71.3602C1241.14 71.3602 1257.44 76.1179 1267.42 83.7878C1277.39 91.4577 1279.02 97.2822 1285.2 105.013C1291.38 112.743 1310.28 110.625 1310.28 110.625L1353.37 132.982L1397.16 157.332C1397.16 157.332 1353.84 131.941 1349.25 124.21C1344.67 116.48 1309.09 88.3685 1302.91 80.6379C1296.72 72.9074 1288.22 74.4545 1282.04 63.6347C1275.85 52.8149 1268.9 40.443 1258.84 31.1703C1248.8 21.8926 1227.95 7.97855 1216.73 1.79509C1205.51 -4.38836 1187.73 -10.5718 1187.73 -10.5718L1156.81 -17.5288L1126.67 -34.0063H988.309C988.309 -34.0063 1056.18 12.6199 1087.02 24.2133C1098.69 28.5968 1163.02 26.534 1163.02 26.534L1163.02 26.5289Z" fill="#633BBC"/>
<path fill-rule="evenodd" clip-rule="evenodd" d="M477.909 170.639C477.909 170.639 501.293 185.928 507.83 191.53C514.368 197.132 535.84 199.625 540.047 201.182C544.254 202.739 554.335 216.749 554.335 216.749C554.335 216.749 560.145 227.109 561.535 234.536C562.93 241.963 581.577 250.371 581.577 250.371L599.268 257.844C599.268 257.844 571.854 227.023 568.795 219.555C565.731 212.083 569.483 205.237 561.54 201.187C553.592 197.142 534.273 190.605 532.261 183.132C530.249 175.659 498.805 149.51 488.845 144.843C478.885 140.171 449.343 128.967 449.343 128.967C449.343 128.967 468.535 160.375 477.914 170.649L477.909 170.639Z" fill="#633BBC"/>
<path fill-rule="evenodd" clip-rule="evenodd" d="M-37.6836 335.008C-37.6836 335.008 0.423282 369.141 23.074 382.418C45.7248 395.69 58.1423 390.002 58.1423 390.002C58.1423 390.002 78.1437 395.836 90.3792 405.246C102.615 414.655 104.607 421.799 112.191 431.284C119.775 440.764 142.956 438.165 142.956 438.165L195.801 465.589L249.521 495.454C249.521 495.454 196.378 464.309 190.761 454.83C185.138 445.35 141.49 410.863 133.906 401.383C126.322 391.903 115.892 393.799 108.308 380.522C100.724 367.25 92.1892 352.077 79.8628 340.701C67.5363 329.325 41.9581 312.256 28.2008 304.672C14.4384 297.088 -7.36797 289.499 -7.36797 289.499L-45.2928 280.965L-82.2722 260.751H-252.001C-252.001 260.751 -168.755 317.944 -130.921 332.167C-116.612 337.546 -37.6836 335.013 -37.6836 335.013V335.008Z" fill="#633BBC"/>
<path fill-rule="evenodd" clip-rule="evenodd" d="M1226.59 246.164C1226.59 246.164 1278.23 274.937 1284.77 280.539C1291.3 286.141 1280.68 289.741 1283.74 293.028C1291.34 301.208 1330.44 312.185 1330.44 312.185C1330.44 312.185 1336.97 314.404 1338.36 321.832C1339.76 329.259 1348.51 334.067 1348.51 334.067L1366.2 341.54C1366.2 341.54 1328.8 310.193 1325.74 302.725C1322.67 295.252 1317.8 294.373 1309.86 290.328C1301.91 286.283 1275.46 275.66 1273.45 268.188C1271.43 260.715 1223.29 201.954 1213.32 197.288C1203.36 192.616 1165.87 186.918 1165.87 186.918C1165.87 186.918 1217.21 235.89 1226.59 246.164V246.164Z" fill="#633BBC"/>
<path fill-rule="evenodd" clip-rule="evenodd" d="M351.676 -15.7599C351.676 -15.7599 395.309 16.8006 415.427 25.3806C415.427 25.3806 440.591 23.4998 443.993 25.3806C447.396 27.2614 462.341 36.5341 463.888 40.144C465.436 43.7489 466.467 51.4795 469.556 55.0895C472.65 58.6944 500.473 72.0927 510.267 73.6399C520.06 75.187 543.763 79.8233 548.399 82.9176C553.035 86.0118 551.493 93.2217 554.067 96.8316C556.645 100.437 572.101 106.625 578.285 110.746C584.468 114.866 603.787 113.84 609.586 116.413C615.386 118.992 627.753 126.717 627.753 126.717L632.384 130.838C632.384 130.838 629.8 139.6 632.384 142.174C634.967 144.752 645.787 146.81 645.787 146.81C645.787 146.81 637.541 138.564 637.541 133.412C637.541 128.26 632.384 124.134 632.384 124.134C632.384 124.134 606.624 112.283 603.014 109.188C599.409 106.094 566.939 79.2975 564.366 74.6612C561.787 70.0248 556.12 57.1422 553.03 53.5323C549.936 49.9273 520.566 42.1968 513.351 39.1025C506.136 36.0082 496.853 26.7356 492.475 19.005C488.102 11.2744 479.855 -10.1225 477.277 -12.9437C474.698 -15.7649 469.03 -15.7649 469.03 -15.7649H351.666L351.676 -15.7599Z" fill="#633BBC"/>
<path fill-rule="evenodd" clip-rule="evenodd" d="M786.896 221.543C786.896 221.543 810.28 236.832 816.817 242.434C823.355 248.036 844.827 250.529 849.034 252.086C853.24 253.643 863.322 267.654 863.322 267.654C863.322 267.654 869.131 278.013 870.522 285.44C871.917 292.868 890.564 301.276 890.564 301.276L908.255 308.748C908.255 308.748 880.841 277.927 877.782 270.46C874.718 262.987 878.47 256.141 870.527 252.091C862.579 248.046 843.26 241.509 841.248 234.036C839.235 226.564 807.792 200.414 797.832 195.747C787.872 191.076 758.33 179.872 758.33 179.872C758.33 179.872 777.522 211.279 786.901 221.553L786.896 221.543Z" fill="#633BBC"/>
<path fill-rule="evenodd" clip-rule="evenodd" d="M792.835 50.4432C792.835 50.4432 823.904 78.2712 842.368 89.091C860.833 99.9108 870.955 95.2745 870.955 95.2745C870.955 95.2745 887.26 100.032 897.236 107.702C907.211 115.372 905.664 129.286 911.848 137.017C918.031 144.747 943.538 139.337 943.538 139.337L981.762 181.56L1007.03 208.129C1007.03 208.129 979.754 172.57 975.174 164.845C970.593 157.114 938.902 112.283 932.714 104.552C926.53 96.8216 918.026 98.3687 911.843 87.549C905.659 76.7292 898.702 64.3572 888.651 55.0846C878.605 45.8068 857.754 31.8928 846.535 25.7093C835.315 19.5259 817.538 13.3424 817.538 13.3424L786.621 6.38541L756.478 -10.092H618.116C618.116 -10.092 685.982 36.5342 716.823 48.1275C728.493 52.5111 792.83 50.4482 792.83 50.4482L792.835 50.4432Z" fill="#633BBC"/>
<path fill-rule="evenodd" clip-rule="evenodd" d="M915.139 -5.39984C915.139 -5.39984 931.956 18.5604 943.999 25.5174C956.037 32.4745 971.261 35.4373 976.954 42.3943C982.647 49.3513 1004.68 65.2574 1004.68 65.2574L1036.31 78.3372C1036.31 78.3372 993.244 41.9342 988.527 33.4654C983.81 25.0017 971.144 18.0447 971.144 18.0447L915.139 -5.39984V-5.39984Z" fill="#633BBC"/>
<path fill-rule="evenodd" clip-rule="evenodd" d="M-164.501 136.072C-164.501 136.072 -110.397 175.211 -99.5371 184.625C-88.6768 194.039 -59.5039 193.326 -49.8469 203.206C-40.19 213.085 -22.8733 217.413 -10.7491 230.836C1.37512 244.255 41.5297 254.144 55.2162 269.98C68.9078 285.815 92.1905 292.302 103.925 299.451C115.66 306.6 152.028 323.917 152.028 323.917C152.028 323.917 107.631 303.137 100.391 282.357C93.1512 261.577 97.2617 235.68 97.2617 235.68C97.2617 235.68 106.565 233.642 97.2617 216.437C87.9587 199.232 95.7297 188.265 84.0504 173.835C72.3711 159.406 66.7843 133.428 74.7727 121.309C82.7612 109.19 101.372 73.6057 97.2617 52.4364C93.1512 31.2619 129.281 15.6794 129.281 15.6794C129.281 15.6794 183.916 20.877 190.484 29.5328C197.051 38.1937 245.134 52.4364 245.134 52.4364C245.134 52.4364 283.554 54.5599 288.792 52.4364C294.025 50.3129 310.492 64.1662 323.906 76.2854C337.319 88.4096 339.933 81.0229 358.56 93.9965C377.191 106.97 380.75 126.557 391.439 136.077C391.439 136.077 379.476 115.171 375.714 93.9965C375.714 93.9965 394.851 96.1048 408.705 99.5682C422.558 103.031 429.197 102.263 438.767 109.574C448.338 116.885 458.875 121.501 458.875 121.501C458.875 121.501 442.666 106.879 438.767 98.7946C434.869 90.7152 431.79 82.6306 426.79 79.5516C421.79 76.4725 365.188 62.1944 350.687 55.4801C336.187 48.7657 323.906 26.6408 323.906 26.6408C323.906 26.6408 290.718 -19.9854 269.782 -20.6932C248.845 -21.4011 212.144 -31.4776 198.781 -40.8969C185.418 -50.3162 141.319 -103.834 141.319 -103.834H-157.14L-164.501 136.072V136.072Z" fill="#633BBC"/>
<path fill-rule="evenodd" clip-rule="evenodd" d="M314.252 229.773C314.252 229.773 337.636 245.062 344.174 250.664C350.711 256.266 372.184 258.759 376.39 260.316C380.597 261.873 390.679 275.883 390.679 275.883C390.679 275.883 396.488 286.243 397.878 293.67C399.274 301.098 417.92 309.506 417.92 309.506L435.611 316.978C435.611 316.978 408.198 286.157 405.139 278.689C402.075 271.217 405.826 264.371 397.883 260.321C389.935 256.276 370.616 249.739 368.604 242.266C366.592 234.793 335.149 208.644 325.189 203.977C315.228 199.306 285.686 188.102 285.686 188.102C285.686 188.102 304.879 219.509 314.258 229.783L314.252 229.773Z" fill="#633BBC"/>
</g>
<path d="M928.806 10.6826C928.098 10.6826 927.523 10.0294 927.523 9.22347C927.523 8.41758 928.098 7.76425 928.806 7.76425C929.515 7.76425 930.089 8.41758 930.089 9.22347C930.089 10.0294 929.515 10.6826 928.806 10.6826Z" fill="white"/>
<path d="M888.773 6.79766C888.773 7.32508 889.16 7.76458 889.634 7.76458C890.109 7.76458 890.495 7.32508 890.495 6.79766C890.495 6.27024 890.109 5.83075 889.634 5.83075C889.16 5.83075 888.773 6.27024 888.773 6.79766Z" fill="white"/>
<path d="M911.445 177.241C910.812 176.89 910.039 177.188 909.723 177.909C909.406 178.63 909.67 179.509 910.32 179.861C910.97 180.212 911.726 179.913 912.042 179.193C912.359 178.472 912.095 177.593 911.445 177.241Z" fill="white"/>
<path d="M880.936 45.1764C880.515 44.9479 879.987 45.1413 879.777 45.6159C879.566 46.0906 879.741 46.6708 880.163 46.9169C880.585 47.1454 881.112 46.952 881.323 46.4774C881.534 46.0027 881.358 45.4225 880.936 45.1764Z" fill="white"/>
<path d="M1060.85 152.367C1059.85 152.596 1059.18 153.686 1059.39 154.829C1059.58 155.971 1060.57 156.692 1061.57 156.481C1062.57 156.253 1063.24 155.163 1063.03 154.02C1062.83 152.895 1061.85 152.156 1060.85 152.367Z" fill="white"/>
<g opacity="0.64">
<path d="M955.475 103.053C955.528 102.702 955.317 102.385 955.019 102.315C954.72 102.262 954.421 102.491 954.368 102.825C954.316 103.177 954.527 103.493 954.825 103.563C955.124 103.634 955.423 103.388 955.475 103.053Z" fill="white"/>
<path d="M971.911 107.307C971.946 107.079 971.806 106.868 971.612 106.815C971.401 106.78 971.208 106.938 971.173 107.167C971.138 107.395 971.278 107.606 971.472 107.659C971.683 107.694 971.876 107.536 971.911 107.307Z" fill="white"/>
<path d="M1013.91 107.024C1014.37 107.393 1015 107.27 1015.32 106.76C1015.65 106.25 1015.55 105.547 1015.09 105.178C1014.64 104.809 1014 104.932 1013.69 105.441C1013.35 105.951 1013.46 106.655 1013.91 107.024Z" fill="white"/>
<path d="M949.829 59.7492C950.128 59.9953 950.549 59.925 950.778 59.5734C950.989 59.2393 950.936 58.7647 950.62 58.5186C950.321 58.2724 949.899 58.3427 949.671 58.6943C949.46 59.0284 949.513 59.503 949.829 59.7492Z" fill="white"/>
<path d="M922.155 66.009C922.594 66.009 922.946 65.5871 922.946 65.0773C922.946 64.5674 922.559 64.1807 922.12 64.1982C921.68 64.1982 921.329 64.6202 921.329 65.13C921.329 65.6398 921.716 66.0266 922.155 66.009Z" fill="white"/>
<path d="M1058.74 51.7707C1058.74 52.4036 1059.2 52.9134 1059.76 52.9134C1060.32 52.9134 1060.78 52.4036 1060.78 51.7707C1060.78 51.1377 1060.32 50.6279 1059.76 50.6279C1059.2 50.6279 1058.74 51.1377 1058.74 51.7707Z" fill="white"/>
<path d="M1095.31 130.672C1095.31 131.937 1096.23 132.957 1097.35 132.957C1098.48 132.957 1099.39 131.937 1099.39 130.672C1099.39 129.406 1098.48 128.386 1097.35 128.386C1096.23 128.386 1095.31 129.406 1095.31 130.672Z" fill="white"/>
</g>
<g opacity="0.64">
<path d="M63.6308 10.2671C63.455 10.0737 63.1738 10.0737 62.9981 10.2671C62.8223 10.4605 62.8223 10.7945 62.9981 10.9879C63.1738 11.1813 63.455 11.1813 63.6308 10.9879C63.8065 10.7945 63.8065 10.4605 63.6308 10.2671Z" fill="white"/>
</g>
<g opacity="0.64">
<path d="M527.2 117.805C527.481 118.104 527.956 118.174 528.255 117.928C528.553 117.699 528.571 117.26 528.272 116.943C527.991 116.644 527.517 116.574 527.218 116.82C526.919 117.049 526.901 117.488 527.2 117.805Z" fill="white"/>
<path d="M481.99 110.156C482.183 110.367 482.499 110.402 482.693 110.244C482.886 110.086 482.903 109.787 482.693 109.594C482.499 109.383 482.183 109.347 481.99 109.506C481.796 109.664 481.779 109.963 481.99 110.156Z" fill="white"/>
<path d="M526.101 167.699C525.714 167.769 525.486 168.138 525.609 168.525C525.732 168.912 526.154 169.14 526.54 169.07C526.927 169 527.155 168.63 527.032 168.244C526.909 167.857 526.488 167.628 526.101 167.699Z" fill="white"/>
<path d="M432.165 162.883C431.902 162.936 431.761 163.182 431.849 163.428C431.937 163.674 432.218 163.85 432.464 163.797C432.728 163.744 432.868 163.498 432.78 163.252C432.692 163.006 432.411 162.83 432.165 162.883Z" fill="white"/>
<path d="M588.594 115.169C588.26 115.591 588.366 116.224 588.858 116.593C589.35 116.962 590.017 116.927 590.351 116.505C590.685 116.083 590.58 115.45 590.088 115.081C589.596 114.712 588.928 114.747 588.594 115.169Z" fill="white"/>
</g>
<g opacity="0.64">
<path d="M309.519 164.651C309.256 164.95 309.238 165.424 309.519 165.723C309.8 166.022 310.205 166.04 310.486 165.723C310.749 165.424 310.767 164.95 310.486 164.651C310.222 164.352 309.8 164.335 309.519 164.651Z" fill="white"/>
<path d="M312.065 118.27C311.889 118.463 311.889 118.78 312.065 118.991C312.24 119.184 312.521 119.202 312.697 118.991C312.873 118.797 312.873 118.463 312.697 118.27C312.521 118.076 312.24 118.059 312.065 118.27Z" fill="white"/>
<path d="M258.485 152.853C258.362 152.449 257.992 152.238 257.623 152.361C257.272 152.484 257.079 152.923 257.184 153.328C257.307 153.732 257.676 153.943 258.045 153.82C258.397 153.697 258.59 153.257 258.485 152.853Z" fill="white"/>
<path d="M255.24 67.814C255.169 67.5503 254.906 67.4096 254.677 67.4975C254.449 67.5854 254.308 67.8667 254.396 68.148C254.466 68.4117 254.73 68.5524 254.958 68.4645C255.187 68.3766 255.327 68.0953 255.24 67.814Z" fill="white"/>
<path d="M298.511 207.347C298.071 206.995 297.456 207.136 297.158 207.628C296.859 208.121 296.964 208.806 297.404 209.158C297.843 209.509 298.458 209.369 298.757 208.877C299.056 208.384 298.95 207.699 298.511 207.347Z" fill="white"/>
</g>
<g opacity="0.64">
<path d="M439.941 48.8974C439.889 49.249 440.1 49.5654 440.398 49.6358C440.697 49.6885 440.996 49.46 441.048 49.126C441.101 48.7743 440.89 48.4579 440.592 48.3875C440.293 48.3172 439.994 48.5634 439.941 48.8974Z" fill="white"/>
<path d="M423.499 44.645C423.463 44.8735 423.604 45.0845 423.797 45.1372C424.008 45.1724 424.201 45.0142 424.237 44.7857C424.272 44.5571 424.131 44.3461 423.938 44.2934C423.727 44.2582 423.534 44.4164 423.499 44.645Z" fill="white"/>
<path d="M381.497 44.9433C381.04 44.5741 380.408 44.6971 380.091 45.207C379.758 45.7168 379.863 46.42 380.32 46.7892C380.777 47.1584 381.409 47.0354 381.726 46.5255C382.06 46.0157 381.954 45.3125 381.497 44.9433Z" fill="white"/>
<path d="M400.616 18.3775C400.318 18.1313 399.896 18.2017 399.667 18.5533C399.457 18.8873 399.509 19.362 399.826 19.6081C400.124 19.8543 400.546 19.7839 400.774 19.4323C401.003 19.0807 400.933 18.6236 400.616 18.3775Z" fill="white"/>
<path d="M484.493 99.3728C484.054 99.3728 483.703 99.7947 483.703 100.305C483.703 100.814 484.089 101.201 484.529 101.184C484.968 101.184 485.319 100.762 485.319 100.252C485.319 99.742 484.933 99.3552 484.493 99.3728Z" fill="white"/>
<path d="M351.298 160.03C350.735 160.03 350.279 159.518 350.279 158.887C350.279 158.256 350.735 157.744 351.298 157.744C351.861 157.744 352.317 158.256 352.317 158.887C352.317 159.518 351.861 160.03 351.298 160.03Z" fill="white"/>
<path d="M300.092 21.2792C300.092 20.0134 299.178 18.9937 298.053 18.9937C296.928 18.9937 296.015 20.0134 296.015 21.2792C296.015 22.545 296.928 23.5647 298.053 23.5647C299.178 23.5647 300.092 22.545 300.092 21.2792Z" fill="white"/>
</g>
<g opacity="0.64">
<path d="M1034.51 303.47C1034.42 303.136 1034.11 302.907 1033.81 302.978C1033.51 303.048 1033.33 303.364 1033.42 303.698C1033.51 304.033 1033.83 304.261 1034.13 304.191C1034.42 304.12 1034.6 303.804 1034.51 303.47Z" fill="white"/>
<path d="M1051.31 300.904C1051.26 300.676 1051.05 300.535 1050.83 300.57C1050.62 300.605 1050.52 300.834 1050.57 301.062C1050.62 301.291 1050.83 301.432 1051.05 301.396C1051.26 301.361 1051.36 301.133 1051.31 300.904Z" fill="white"/>
<path d="M1089.77 284.134C1090.34 284.292 1090.86 283.94 1090.97 283.342C1091.07 282.745 1090.69 282.129 1090.13 281.971C1089.56 281.813 1089.04 282.165 1088.93 282.762C1088.83 283.36 1089.21 283.975 1089.77 284.134Z" fill="white"/>
<path d="M1082.76 316.043C1083.13 316.148 1083.5 315.92 1083.55 315.516C1083.62 315.111 1083.36 314.707 1082.99 314.601C1082.62 314.496 1082.25 314.724 1082.2 315.129C1082.13 315.533 1082.39 315.937 1082.76 316.043Z" fill="white"/>
<path d="M973.535 274.64C973.939 274.447 974.097 273.937 973.886 273.48C973.676 273.023 973.183 272.812 972.779 272.987C972.375 273.181 972.217 273.691 972.428 274.148C972.639 274.605 973.131 274.816 973.535 274.64Z" fill="white"/>
<path d="M1071.32 167.976C1071.57 168.556 1072.2 168.855 1072.71 168.627C1073.22 168.398 1073.45 167.765 1073.18 167.185C1072.92 166.605 1072.3 166.306 1071.79 166.535C1071.28 166.763 1071.06 167.396 1071.32 167.976Z" fill="white"/>
</g>
<g opacity="0.64">
<path d="M416.984 284.971C416.844 284.215 416.316 283.705 415.824 283.863C415.332 284.004 415.034 284.76 415.192 285.516C415.35 286.272 415.86 286.781 416.352 286.623C416.844 286.465 417.142 285.727 416.984 284.971Z" fill="white"/>
<path d="M444.524 279.185C444.436 278.675 444.085 278.341 443.751 278.447C443.417 278.552 443.224 279.045 443.329 279.555C443.417 280.064 443.768 280.398 444.102 280.293C444.436 280.187 444.629 279.695 444.524 279.185Z" fill="white"/>
<path d="M507.629 241.162C508.543 241.531 509.421 240.722 509.579 239.369C509.738 238.015 509.123 236.626 508.209 236.257C507.295 235.888 506.416 236.696 506.258 238.05C506.1 239.404 506.715 240.793 507.629 241.162Z" fill="white"/>
<path d="M496.12 313.485C496.735 313.731 497.315 313.186 497.42 312.29C497.526 311.393 497.121 310.461 496.506 310.215C495.891 309.969 495.311 310.514 495.206 311.411C495.1 312.307 495.505 313.239 496.12 313.485Z" fill="white"/>
<path d="M223.869 257.071C224.537 256.649 224.8 255.471 224.449 254.434C224.097 253.396 223.289 252.904 222.621 253.326C221.953 253.748 221.69 254.926 222.041 255.963C222.393 257 223.201 257.493 223.869 257.071Z" fill="white"/>
</g>
<g opacity="0.64">
<path d="M713.821 176.151C714.12 175.957 714.225 175.588 714.067 175.325C713.909 175.061 713.54 174.99 713.241 175.184C712.942 175.377 712.837 175.746 712.995 176.01C713.153 176.274 713.522 176.344 713.821 176.151Z" fill="white"/>
<path d="M721.533 191.218C721.727 191.095 721.797 190.849 721.691 190.673C721.586 190.498 721.34 190.462 721.147 190.586C720.953 190.709 720.883 190.955 720.989 191.131C721.094 191.306 721.34 191.341 721.533 191.218Z" fill="white"/>
<path d="M749.653 222.264C749.67 222.844 750.18 223.231 750.777 223.143C751.375 223.055 751.849 222.493 751.814 221.912C751.797 221.332 751.287 220.946 750.69 221.033C750.092 221.121 749.618 221.684 749.653 222.264Z" fill="white"/>
<path d="M717.001 225.676C717.001 226.063 717.352 226.327 717.756 226.257C718.16 226.186 718.459 225.835 718.459 225.448C718.459 225.061 718.108 224.797 717.704 224.868C717.299 224.938 717.001 225.29 717.001 225.676Z" fill="white"/>
<path d="M722.122 109.502C722.42 109.819 722.983 109.819 723.352 109.467C723.721 109.133 723.773 108.588 723.475 108.254C723.176 107.937 722.614 107.938 722.245 108.289C721.876 108.623 721.823 109.168 722.122 109.502Z" fill="white"/>
<path d="M854.646 168.311C854.171 168.733 854.083 169.401 854.452 169.823C854.821 170.245 855.507 170.245 855.981 169.823C856.456 169.401 856.544 168.733 856.175 168.311C855.805 167.889 855.12 167.889 854.646 168.311Z" fill="white"/>
</g>
<g opacity="0.64">
<path d="M110.691 244.593C110.603 244.259 110.287 244.03 109.988 244.101C109.689 244.171 109.514 244.487 109.601 244.822C109.689 245.156 110.006 245.384 110.304 245.314C110.603 245.243 110.779 244.927 110.691 244.593Z" fill="white"/>
<path d="M127.486 242.045C127.433 241.817 127.222 241.676 127.011 241.711C126.8 241.747 126.695 241.975 126.747 242.204C126.8 242.432 127.011 242.573 127.222 242.538C127.433 242.502 127.538 242.274 127.486 242.045Z" fill="white"/>
<path d="M165.953 225.252C166.516 225.41 167.043 225.058 167.148 224.461C167.254 223.863 166.867 223.248 166.305 223.089C165.743 222.931 165.215 223.283 165.11 223.881C165.004 224.478 165.391 225.094 165.953 225.252Z" fill="white"/>
<path d="M49.7211 215.762C50.1252 215.568 50.2834 215.059 50.0725 214.601C49.8617 214.144 49.3696 213.933 48.9655 214.109C48.5613 214.303 48.4031 214.812 48.614 215.27C48.8249 215.727 49.3169 215.938 49.7211 215.762Z" fill="white"/>
</g>
<path d="M781.888 69.1725C781.378 68.0298 780.148 67.5727 779.129 68.1528C778.11 68.733 777.706 70.1219 778.215 71.2646C778.725 72.4074 779.955 72.8644 780.974 72.2843C781.993 71.7041 782.397 70.3153 781.888 69.1725Z" fill="white"/>
<path d="M635.225 70.5267C635.946 70.5267 636.508 69.8586 636.508 69.0499C636.508 68.2412 635.911 67.6083 635.208 67.6083C634.487 67.6083 633.925 68.2763 633.925 69.085C633.925 69.8938 634.522 70.5267 635.225 70.5267Z" fill="white"/>
<path d="M773.51 116.395C773.985 116.395 774.371 115.956 774.354 115.411C774.354 114.883 773.95 114.444 773.475 114.461C773.001 114.461 772.614 114.901 772.632 115.446C772.632 115.973 773.036 116.413 773.51 116.395Z" fill="white"/>
<path d="M481.526 123.602C481.069 122.582 479.962 122.178 479.048 122.688C478.134 123.197 477.783 124.446 478.24 125.465C478.697 126.485 479.804 126.889 480.717 126.38C481.631 125.87 481.983 124.621 481.526 123.602Z" fill="white"/>
<path d="M339.508 250.393C340.035 250.393 340.457 249.901 340.457 249.303C340.457 248.705 340.017 248.23 339.49 248.23C338.963 248.23 338.541 248.723 338.541 249.32C338.541 249.918 338.981 250.393 339.508 250.393Z" fill="white"/>
<path d="M398.701 70.8276C399.72 70.8276 400.528 69.8782 400.51 68.7355C400.51 67.5927 399.667 66.6785 398.648 66.6961C397.629 66.7137 396.82 67.6455 396.838 68.7882C396.838 69.931 397.681 70.8451 398.701 70.8276Z" fill="white"/>
<path d="M59.5803 132.255C60.0548 131.833 60.1427 131.059 59.7737 130.532C59.4047 130.004 58.7193 129.899 58.2449 130.321C57.7704 130.743 57.6825 131.516 58.0515 132.044C58.4205 132.571 59.1059 132.677 59.5803 132.255Z" fill="white"/>
<path d="M222.385 372.999C222.912 372.999 223.334 372.507 223.334 371.909C223.334 371.311 222.894 370.837 222.367 370.837C221.84 370.837 221.418 371.329 221.418 371.927C221.418 372.524 221.857 372.999 222.385 372.999Z" fill="white"/>
<path d="M267.507 182.883C268.526 182.883 269.335 181.934 269.317 180.791C269.317 179.648 268.473 178.734 267.454 178.751C266.435 178.769 265.627 179.701 265.644 180.844C265.644 181.986 266.488 182.9 267.507 182.883Z" fill="white"/>
<g opacity="0.4" filter="url(#filter0_f_307_1885)">
<ellipse cx="585.374" cy="14" rx="688.625" ry="347.083" fill="#633BBC"/>
</g>
<rect opacity="0.8" width="1493.33" height="756" transform="matrix(1 0 0 -1 -147.001 756)" fill="url(#paint0_linear_307_1885)"/>
<g opacity="0.05">
<g clip-path="url(#clip1_307_1885)">
<mask id="mask0_307_1885" style="mask-type:alpha" maskUnits="userSpaceOnUse" x="309" y="48" width="577" height="252">
<rect x="309" y="48.5298" width="576.998" height="251.217" fill="url(#paint1_linear_307_1885)"/>
</mask>
<g mask="url(#mask0_307_1885)">
<path d="M813.681 81.5236L781.068 70.6292L646.757 71.0496L623.507 62.6974L603.835 70.8694L519.772 70.6392L486.463 55.366H438.031L430.54 70.6342H388.329L309 196.963L397.306 296.64H797.882L886.189 196.963L813.676 81.5186L813.681 81.5236ZM795.846 292.121H399.343L314.635 196.503L390.836 75.1531H433.367L440.854 59.8849H485.477L518.776 75.1531L604.73 75.3883L623.622 67.5365L645.971 75.5685L780.337 75.1481L810.708 85.2919L880.554 196.493L795.846 292.111V292.121Z" fill="url(#paint2_linear_307_1885)"/>
</g>
<path d="M880.559 196.503L795.845 292.115H399.343L314.635 196.503L390.836 75.1527H433.367L440.854 59.8845H485.477L518.781 75.1527L604.73 75.3929L623.622 67.5411L645.971 75.573L780.337 75.1527L810.708 85.3015L880.559 196.503Z" fill="url(#paint3_linear_307_1885)"/>
<path d="M880.547 196.502L810.712 85.3013L780.331 75.1576L645.975 75.5679L623.626 67.536L604.724 75.3878L518.775 75.1576L485.476 59.8894H440.858L433.371 75.1576H390.844L314.639 196.502H365.598L404.006 225.052H466.21L475.523 196.502H515.872L525.145 156.108H534.348L546.779 150.693L544.172 178.107L578.542 196.502H880.547Z" fill="#4A357D"/>
<path d="M341.623 181.585H385.036L392.497 167.272H373.245L386.867 143.392L409.186 135.265L416.238 121.753L394.994 129.144L406.299 109.322L399.638 99.2586H412.044H427.968L432.757 90.0757H399.093L341.623 181.585Z" fill="white"/>
<path d="M450.162 74.802L424.96 126.226L455.517 144.362L467.507 150.557L449.361 160.411L436.555 193.785H416.002L437.981 142.976L421.562 133.157L390.52 196.487L408.931 210.134H455.386L478.401 139.553L446.949 122.243L463.879 83.1092H479.012L489.311 87.4379L474.743 94.2388L464.8 120.166L481.749 129.274L497.243 81.758L482.2 74.802H450.162Z" fill="white"/>
<path d="M506.816 90.0748L480.533 181.584H503.988L513.266 141.189H531.242L553.571 131.466L557.71 97.8665L540.475 90.0748H506.811H506.816ZM536.957 109.587L533.354 129.529H515.949L522.9 99.2527H538.823L550.574 104.032L536.957 109.582V109.587Z" fill="white"/>
<path d="M567.529 90.0748L559.962 169.639L582.281 181.584H625.694L619.924 97.8665L601.198 90.0748H567.534H567.529ZM601.513 118.229L602.073 167.266H582.822L585.379 99.2527H601.303L613.538 104.032L601.518 118.229H601.513Z" fill="white"/>
<path d="M632.76 97.9015L641.843 181.584H665.298L658.587 141.189H676.563L685.25 181.584H708.71L698.186 142.975L684.379 137.13L695.049 131.466L683.764 90.0748H650.1L632.76 97.9015V97.9015ZM674.061 129.529H656.655L653.363 109.692L639.781 104.037L651.626 99.2577H667.55L674.061 129.534V129.529Z" fill="white"/>
<path d="M692.466 99.2577H708.145L736.124 181.584H759.584L730.819 109.201L714.39 99.1476H742.254L738.221 90.0748H689.789L692.466 99.2577Z" fill="white"/>
<path d="M820.717 129.274L800.925 97.7614L777.905 90.0748H744.241L761.015 126.226L808.872 144.362L821.943 167.271H802.686L790.02 142.975L764.228 133.157L781.153 169.639L810.153 181.584H853.565L827.167 139.553L779.206 122.243L772.485 109.351L754.825 99.2577H783.144L795.07 120.166L820.717 129.274Z" fill="white"/>
<path d="M624.411 79.1101C621.954 81.5072 619.171 83.7291 616.114 85.7458C619.457 87.7826 622.634 90.1046 625.602 92.6718C628.119 90.1046 630.891 87.7826 633.874 85.7458C630.461 83.7291 627.288 81.5072 624.411 79.1101Z" fill="#E2D45C"/>
<path d="M368.077 170.274L382.164 145.573C376.939 146.168 371.76 146.779 366.625 147.415L347.054 178.581H383.215L387.544 170.274H368.077V170.274Z" fill="url(#paint4_linear_307_1885)"/>
<path d="M469.079 137.851C463.484 138.216 457.924 138.606 452.4 139.022L456.974 141.734L472.002 149.496L474.774 140.983L469.079 137.851V137.851ZM451.764 162.517L438.623 196.787H411.434L434.184 144.201L428.709 140.928C426.047 141.159 423.39 141.394 420.747 141.639L394.319 195.561L409.923 207.131H453.205L471.191 151.973L451.764 162.517V162.517Z" fill="url(#paint5_linear_307_1885)"/>
<path d="M539.266 134.423L530.623 138.186H510.881L501.603 178.581H484.524L496.689 136.219C510.691 135.484 524.888 134.883 539.266 134.423Z" fill="url(#paint6_linear_307_1885)"/>
<path d="M622.476 178.581H583.037L563.14 167.937L566.398 133.713C571.277 133.613 576.171 133.532 581.085 133.467L579.704 170.274H605.111L604.691 133.272C606.938 133.267 609.19 133.262 611.447 133.262C614.089 133.262 616.726 133.267 619.353 133.277L622.476 178.581V178.581Z" fill="url(#paint7_linear_307_1885)"/>
<path d="M704.783 178.581H687.678L678.99 138.186H655.045L661.755 178.581H644.535L639.636 133.437C654.289 133.617 668.786 133.942 683.109 134.403L677.399 137.436L695.675 145.172L704.783 178.581V178.581Z" fill="url(#paint8_linear_307_1885)"/>
<path d="M738.598 136.905C733.704 136.62 728.784 136.349 723.84 136.099L738.278 178.581H755.162L738.598 136.905Z" fill="url(#paint9_linear_307_1885)"/>
<path d="M826.429 144.017C821.41 143.491 816.355 142.981 811.261 142.49L827.114 170.274H800.867L787.886 145.378L771.356 139.082C770.986 139.052 770.621 139.027 770.25 139.002L783.387 167.312L810.745 178.582H848.138L826.429 144.017V144.017Z" fill="url(#paint10_linear_307_1885)"/>
<path fill-rule="evenodd" clip-rule="evenodd" d="M548.198 248.923V242.748L531.138 249.093H531.103V255.429H531.138L548.198 261.774V255.589L539.455 252.246L548.198 248.923V248.923Z" fill="#996DFF"/>
<path fill-rule="evenodd" clip-rule="evenodd" d="M647.014 261.454V255.279L655.751 251.956L647.014 248.633V242.458L664.049 248.798H664.089V255.139H664.049L647.014 261.449V261.454ZM639.698 233.735L629.679 265.893H635.629L645.648 233.735H639.698Z" fill="#996DFF"/>
<path fill-rule="evenodd" clip-rule="evenodd" d="M573.265 241.582C574.957 243.443 575.847 245.895 575.742 248.408V262.104H569.792V249.664C569.862 248.277 569.417 246.916 568.551 245.835C567.725 244.874 566.504 244.344 565.238 244.399C561.515 244.399 559.648 246.981 559.648 252.151V262.109H553.698V239.62H559.648V241.652C561.535 239.815 564.097 238.839 566.73 238.949C569.182 238.844 571.564 239.805 573.26 241.582H573.265Z" fill="white"/>
<path fill-rule="evenodd" clip-rule="evenodd" d="M583.314 230.267V262.425H589.264V230.267H583.314Z" fill="white"/>
<path fill-rule="evenodd" clip-rule="evenodd" d="M622.882 261.249H617.918L613.053 248.002L608.144 261.249H603.19L594.853 238.719H601.208L605.892 252.191L610.721 238.719H615.36L620.19 252.236L624.874 238.719H631.229L622.882 261.249V261.249Z" fill="white"/>
<path d="M333.257 66.5057C339.993 50.2366 353.594 37.4156 373.672 28.4028C392.908 19.7653 417.284 14.9612 446.114 14.1304C505.215 12.424 576.562 27.547 646.998 56.7273C652.062 58.8241 657.081 60.9759 662.046 63.1828L655.025 63.2028C652.012 61.8967 648.974 60.6106 645.912 59.3445C501.602 -0.427136 362.517 3.27106 335.874 67.5916C328.157 86.2177 330.704 107.911 341.724 130.791C368.742 186.93 446.745 250.189 549.273 292.656C559.192 296.765 569.12 300.588 579.034 304.126C639.181 325.605 698.587 336.489 748.991 335.033C777.45 334.212 801.456 329.493 820.353 321.011C839.754 312.303 852.861 299.987 859.311 284.409C865.131 270.352 865.111 254.548 860.012 237.804L862.189 235.347C868.164 253.803 868.084 270.652 861.934 285.495C855.193 301.764 841.596 314.585 821.514 323.598C802.277 332.235 777.906 337.039 749.076 337.87C746.063 337.955 743.021 338 739.948 338C689.139 338 630.123 326.155 570.747 304.126C563.225 301.339 555.704 298.386 548.187 295.273C477.752 266.098 416.609 226.349 376.024 183.347C360.065 166.437 347.974 149.753 339.962 133.594C338.031 129.705 336.339 125.852 334.888 122.034C327.066 101.461 326.516 82.7798 333.257 66.5057V66.5057Z" fill="url(#paint11_linear_307_1885)"/>
<path d="M333.257 66.5057C339.993 50.2366 353.594 37.4156 373.672 28.4028C392.908 19.7653 417.284 14.9612 446.114 14.1304C505.215 12.424 576.562 27.547 646.998 56.7273C652.062 58.8241 657.081 60.9759 662.046 63.1828L655.025 63.2028C652.012 61.8967 648.974 60.6106 645.912 59.3445C501.602 -0.427136 362.517 3.27106 335.874 67.5916C328.157 86.2177 330.704 107.911 341.724 130.791C368.742 186.93 446.745 250.189 549.273 292.656C559.192 296.765 569.12 300.588 579.034 304.126C639.181 325.605 698.587 336.489 748.991 335.033C777.45 334.212 801.456 329.493 820.353 321.011C839.754 312.303 852.861 299.987 859.311 284.409C865.131 270.352 865.111 254.548 860.012 237.804L862.189 235.347C868.164 253.803 868.084 270.652 861.934 285.495C855.193 301.764 841.596 314.585 821.514 323.598C802.277 332.235 777.906 337.039 749.076 337.87C746.063 337.955 743.021 338 739.948 338C689.139 338 630.123 326.155 570.747 304.126C563.225 301.339 555.704 298.386 548.187 295.273C477.752 266.098 416.609 226.349 376.024 183.347C360.065 166.437 347.974 149.753 339.962 133.594C338.031 129.705 336.339 125.852 334.888 122.034C327.066 101.461 326.516 82.7798 333.257 66.5057V66.5057Z" fill="url(#paint12_radial_307_1885)"/>
<path d="M333.257 66.5057C339.993 50.2366 353.594 37.4156 373.672 28.4028C392.908 19.7653 417.284 14.9612 446.114 14.1304C505.215 12.424 576.562 27.547 646.998 56.7273C652.062 58.8241 657.081 60.9759 662.046 63.1828L655.025 63.2028C652.012 61.8967 648.974 60.6106 645.912 59.3445C501.602 -0.427136 362.517 3.27106 335.874 67.5916C328.157 86.2177 330.704 107.911 341.724 130.791C368.742 186.93 446.745 250.189 549.273 292.656C559.192 296.765 569.12 300.588 579.034 304.126C639.181 325.605 698.587 336.489 748.991 335.033C777.45 334.212 801.456 329.493 820.353 321.011C839.754 312.303 852.861 299.987 859.311 284.409C865.131 270.352 865.111 254.548 860.012 237.804L862.189 235.347C868.164 253.803 868.084 270.652 861.934 285.495C855.193 301.764 841.596 314.585 821.514 323.598C802.277 332.235 777.906 337.039 749.076 337.87C746.063 337.955 743.021 338 739.948 338C689.139 338 630.123 326.155 570.747 304.126C563.225 301.339 555.704 298.386 548.187 295.273C477.752 266.098 416.609 226.349 376.024 183.347C360.065 166.437 347.974 149.753 339.962 133.594C338.031 129.705 336.339 125.852 334.888 122.034C327.066 101.461 326.516 82.7798 333.257 66.5057V66.5057Z" fill="url(#paint13_radial_307_1885)"/>
<path d="M333.257 66.5057C339.993 50.2366 353.594 37.4156 373.672 28.4028C392.908 19.7653 417.284 14.9612 446.114 14.1304C505.215 12.424 576.562 27.547 646.998 56.7273C652.062 58.8241 657.081 60.9759 662.046 63.1828L655.025 63.2028C652.012 61.8967 648.974 60.6106 645.912 59.3445C501.602 -0.427136 362.517 3.27106 335.874 67.5916C328.157 86.2177 330.704 107.911 341.724 130.791C368.742 186.93 446.745 250.189 549.273 292.656C559.192 296.765 569.12 300.588 579.034 304.126C639.181 325.605 698.587 336.489 748.991 335.033C777.45 334.212 801.456 329.493 820.353 321.011C839.754 312.303 852.861 299.987 859.311 284.409C865.131 270.352 865.111 254.548 860.012 237.804L862.189 235.347C868.164 253.803 868.084 270.652 861.934 285.495C855.193 301.764 841.596 314.585 821.514 323.598C802.277 332.235 777.906 337.039 749.076 337.87C746.063 337.955 743.021 338 739.948 338C689.139 338 630.123 326.155 570.747 304.126C563.225 301.339 555.704 298.386 548.187 295.273C477.752 266.098 416.609 226.349 376.024 183.347C360.065 166.437 347.974 149.753 339.962 133.594C338.031 129.705 336.339 125.852 334.888 122.034C327.066 101.461 326.516 82.7798 333.257 66.5057V66.5057Z" fill="url(#paint14_radial_307_1885)"/>
<path d="M861.933 66.5057C855.197 50.2366 841.596 37.4156 821.518 28.4028C802.282 19.7653 777.905 14.9612 749.076 14.1304C689.975 12.424 618.628 27.547 548.192 56.7273C543.128 58.8241 538.108 60.9759 533.144 63.1828L540.165 63.2028C543.178 61.8967 546.215 60.6106 549.278 59.3445C693.588 -0.427136 832.673 3.27106 859.316 67.5916C867.033 86.2177 864.485 107.911 853.466 130.791C826.447 186.93 748.445 250.189 645.916 292.656C635.998 296.765 626.069 300.588 616.156 304.126C556.009 325.605 496.602 336.489 446.199 335.033C417.739 334.212 393.734 329.493 374.837 321.011C355.435 312.303 342.329 299.987 335.879 284.409C330.059 270.352 330.079 254.548 335.178 237.804L333.001 235.347C327.026 253.803 327.106 270.652 333.256 285.495C339.997 301.764 353.594 314.585 373.676 323.598C392.913 332.235 417.284 337.039 446.114 337.87C449.126 337.955 452.169 338 455.242 338C506.051 338 565.067 326.155 624.443 304.126C631.964 301.339 639.486 298.386 647.002 295.273C717.438 266.098 778.581 226.349 819.166 183.347C835.125 166.437 847.215 149.753 855.227 133.594C857.159 129.705 858.85 125.852 860.302 122.034C868.123 101.461 868.674 82.7798 861.933 66.5057V66.5057Z" fill="url(#paint15_linear_307_1885)"/>
<path d="M861.933 66.5057C855.197 50.2366 841.596 37.4156 821.518 28.4028C802.282 19.7653 777.905 14.9612 749.076 14.1304C689.975 12.424 618.628 27.547 548.192 56.7273C543.128 58.8241 538.108 60.9759 533.144 63.1828L540.165 63.2028C543.178 61.8967 546.215 60.6106 549.278 59.3445C693.588 -0.427136 832.673 3.27106 859.316 67.5916C867.033 86.2177 864.485 107.911 853.466 130.791C826.447 186.93 748.445 250.189 645.916 292.656C635.998 296.765 626.069 300.588 616.156 304.126C556.009 325.605 496.602 336.489 446.199 335.033C417.739 334.212 393.734 329.493 374.837 321.011C355.435 312.303 342.329 299.987 335.879 284.409C330.059 270.352 330.079 254.548 335.178 237.804L333.001 235.347C327.026 253.803 327.106 270.652 333.256 285.495C339.997 301.764 353.594 314.585 373.676 323.598C392.913 332.235 417.284 337.039 446.114 337.87C449.126 337.955 452.169 338 455.242 338C506.051 338 565.067 326.155 624.443 304.126C631.964 301.339 639.486 298.386 647.002 295.273C717.438 266.098 778.581 226.349 819.166 183.347C835.125 166.437 847.215 149.753 855.227 133.594C857.159 129.705 858.85 125.852 860.302 122.034C868.123 101.461 868.674 82.7798 861.933 66.5057V66.5057Z" fill="url(#paint16_radial_307_1885)"/>
<path d="M861.933 66.5057C855.197 50.2366 841.596 37.4156 821.518 28.4028C802.282 19.7653 777.905 14.9612 749.076 14.1304C689.975 12.424 618.628 27.547 548.192 56.7273C543.128 58.8241 538.108 60.9759 533.144 63.1828L540.165 63.2028C543.178 61.8967 546.215 60.6106 549.278 59.3445C693.588 -0.427136 832.673 3.27106 859.316 67.5916C867.033 86.2177 864.485 107.911 853.466 130.791C826.447 186.93 748.445 250.189 645.916 292.656C635.998 296.765 626.069 300.588 616.156 304.126C556.009 325.605 496.602 336.489 446.199 335.033C417.739 334.212 393.734 329.493 374.837 321.011C355.435 312.303 342.329 299.987 335.879 284.409C330.059 270.352 330.079 254.548 335.178 237.804L333.001 235.347C327.026 253.803 327.106 270.652 333.256 285.495C339.997 301.764 353.594 314.585 373.676 323.598C392.913 332.235 417.284 337.039 446.114 337.87C449.126 337.955 452.169 338 455.242 338C506.051 338 565.067 326.155 624.443 304.126C631.964 301.339 639.486 298.386 647.002 295.273C717.438 266.098 778.581 226.349 819.166 183.347C835.125 166.437 847.215 149.753 855.227 133.594C857.159 129.705 858.85 125.852 860.302 122.034C868.123 101.461 868.674 82.7798 861.933 66.5057V66.5057Z" fill="url(#paint17_radial_307_1885)"/>
</g>
</g>
</g>
<defs>
<filter id="filter0_f_307_1885" x="-453.251" y="-683.083" width="2077.25" height="1394.17" filterUnits="userSpaceOnUse" color-interpolation-filters="sRGB">
<feFlood flood-opacity="0" result="BackgroundImageFix"/>
<feBlend mode="normal" in="SourceGraphic" in2="BackgroundImageFix" result="shape"/>
<feGaussianBlur stdDeviation="175" result="effect1_foregroundBlur_307_1885"/>
</filter>
<linearGradient id="paint0_linear_307_1885" x1="746.667" y1="0" x2="746.667" y2="756" gradientUnits="userSpaceOnUse">
<stop stop-color="#121214"/>
<stop offset="1" stop-color="#121214" stop-opacity="0"/>
</linearGradient>
<linearGradient id="paint1_linear_307_1885" x1="597.499" y1="165.381" x2="597.499" y2="288.487" gradientUnits="userSpaceOnUse">
<stop stop-color="#D9D9D9"/>
<stop offset="1" stop-color="#D9D9D9" stop-opacity="0"/>
</linearGradient>
<linearGradient id="paint2_linear_307_1885" x1="309" y1="176" x2="886.194" y2="176" gradientUnits="userSpaceOnUse">
<stop stop-color="#996DFF"/>
<stop offset="0.5" stop-color="#35E8B3"/>
<stop offset="1" stop-color="#E2D45C"/>
</linearGradient>
<linearGradient id="paint3_linear_307_1885" x1="597.594" y1="200.121" x2="597.594" y2="289.738" gradientUnits="userSpaceOnUse">
<stop stop-color="#28203E"/>
<stop offset="1" stop-color="#121214" stop-opacity="0"/>
</linearGradient>
<linearGradient id="paint4_linear_307_1885" x1="367.301" y1="137.556" x2="367.301" y2="172.872" gradientUnits="userSpaceOnUse">
<stop stop-color="#A9A9AD"/>
<stop offset="1" stop-color="#A9A9AD" stop-opacity="0"/>
</linearGradient>
<linearGradient id="paint5_linear_307_1885" x1="434.549" y1="137.555" x2="434.549" y2="172.871" gradientUnits="userSpaceOnUse">
<stop stop-color="#A9A9AD"/>
<stop offset="1" stop-color="#A9A9AD" stop-opacity="0"/>
</linearGradient>
<linearGradient id="paint6_linear_307_1885" x1="511.897" y1="137.555" x2="511.897" y2="172.871" gradientUnits="userSpaceOnUse">
<stop stop-color="#A9A9AD"/>
<stop offset="1" stop-color="#A9A9AD" stop-opacity="0"/>
</linearGradient>
<linearGradient id="paint7_linear_307_1885" x1="592.81" y1="137.556" x2="592.81" y2="172.871" gradientUnits="userSpaceOnUse">
<stop stop-color="#A9A9AD"/>
<stop offset="1" stop-color="#A9A9AD" stop-opacity="0"/>
</linearGradient>
<linearGradient id="paint8_linear_307_1885" x1="672.209" y1="137.556" x2="672.209" y2="172.871" gradientUnits="userSpaceOnUse">
<stop stop-color="#A9A9AD"/>
<stop offset="1" stop-color="#A9A9AD" stop-opacity="0"/>
</linearGradient>
<linearGradient id="paint9_linear_307_1885" x1="739.504" y1="137.555" x2="739.504" y2="172.871" gradientUnits="userSpaceOnUse">
<stop stop-color="#A9A9AD"/>
<stop offset="1" stop-color="#A9A9AD" stop-opacity="0"/>
</linearGradient>
<linearGradient id="paint10_linear_307_1885" x1="809.194" y1="137.556" x2="809.194" y2="172.872" gradientUnits="userSpaceOnUse">
<stop stop-color="#A9A9AD"/>
<stop offset="1" stop-color="#A9A9AD" stop-opacity="0"/>
</linearGradient>
<linearGradient id="paint11_linear_307_1885" x1="832.703" y1="245.951" x2="442.866" y2="247.952" gradientUnits="userSpaceOnUse">
<stop stop-color="#996DFF"/>
<stop offset="0.5" stop-color="#35E8B3"/>
<stop offset="1" stop-color="#E2D45C"/>
</linearGradient>
<radialGradient id="paint12_radial_307_1885" cx="0" cy="0" r="1" gradientUnits="userSpaceOnUse" gradientTransform="translate(594.035 310.08) rotate(15.7611) scale(262.057 435.167)">
<stop stop-color="#171226"/>
<stop offset="1" stop-color="#171226" stop-opacity="0"/>
</radialGradient>
<radialGradient id="paint13_radial_307_1885" cx="0" cy="0" r="1" gradientUnits="userSpaceOnUse" gradientTransform="translate(661.228 64.6253) rotate(-157.036) scale(58.981 97.9427)">
<stop stop-color="#261945"/>
<stop offset="1" stop-color="#261945" stop-opacity="0"/>
</radialGradient>
<radialGradient id="paint14_radial_307_1885" cx="0" cy="0" r="1" gradientUnits="userSpaceOnUse" gradientTransform="translate(862.808 231.228) rotate(76.7293) scale(66.83 110.977)">
<stop stop-color="#191326"/>
<stop offset="1" stop-color="#191326" stop-opacity="0"/>
</radialGradient>
<linearGradient id="paint15_linear_307_1885" x1="612.443" y1="49.898" x2="699.58" y2="270.807" gradientUnits="userSpaceOnUse">
<stop stop-color="#996DFF"/>
<stop offset="0.5" stop-color="#35E8B3"/>
<stop offset="1" stop-color="#E2D45C"/>
</linearGradient>
<radialGradient id="paint16_radial_307_1885" cx="0" cy="0" r="1" gradientUnits="userSpaceOnUse" gradientTransform="translate(527.761 69.5344) rotate(-19.3523) scale(133.329 221.403)">
<stop stop-color="#171225"/>
<stop offset="1" stop-color="#171225" stop-opacity="0"/>
</radialGradient>
<radialGradient id="paint17_radial_307_1885" cx="0" cy="0" r="1" gradientUnits="userSpaceOnUse" gradientTransform="translate(333.239 234.296) rotate(67.4706) scale(89.6854 148.93)">
<stop stop-color="#191327"/>
<stop offset="1" stop-color="#191327" stop-opacity="0"/>
</radialGradient>
<clipPath id="clip0_307_1885">
<rect width="1493.33" height="630" fill="white" transform="translate(-147)"/>
</clipPath>
<clipPath id="clip1_307_1885">
<rect width="577.194" height="324" fill="white" transform="translate(309 14)"/>
</clipPath>
</defs>
</svg>
